<?xml version="1.0" standalone="no"?>
<!DOCTYPE svg PUBLIC "-//W3C//DTD SVG 20010904//EN"
 "http://www.w3.org/TR/2001/REC-SVG-20010904/DTD/svg10.dtd">
<svg version="1.0" xmlns="http://www.w3.org/2000/svg"
 width="700.000000pt" height="700.000000pt" viewBox="0 0 700.000000 700.000000"
 preserveAspectRatio="xMidYMid meet">
<metadata>
Created by potrace 1.14, written by Peter Selinger 2001-2017
</metadata>
<g transform="translate(0.000000,700.000000) scale(0.100000,-0.100000)"
fill="#000000" stroke="none">
<path d="M3278 6996 c-1 -2 -42 -6 -89 -10 -47 -4 -95 -8 -105 -10 -10 -2 -48
-7 -84 -12 -36 -4 -67 -8 -70 -9 -3 -1 -25 -5 -50 -9 -25 -4 -101 -21 -170
-38 -69 -16 -135 -31 -147 -34 -40 -8 -264 -84 -367 -126 -121 -48 -346 -157
-433 -210 -34 -21 -67 -38 -73 -38 -5 0 -10 -4 -10 -10 0 -5 -5 -10 -11 -10
-15 0 -206 -131 -323 -223 -436 -339 -822 -828 -1031 -1307 -25 -58 -50 -114
-55 -125 -45 -93 -150 -427 -176 -560 -2 -11 -11 -54 -19 -95 -8 -41 -17 -89
-19 -105 -3 -17 -7 -46 -11 -66 -6 -40 -10 -75 -22 -199 -15 -162 -8 -592 12
-711 2 -13 6 -46 9 -74 47 -409 239 -952 466 -1318 30 -48 60 -95 65 -105 25
-44 135 -194 212 -289 167 -206 340 -378 553 -548 92 -74 370 -265 386 -265 4
0 15 -6 23 -14 48 -41 400 -206 578 -271 214 -77 472 -141 692 -171 25 -3 57
-8 71 -10 163 -25 682 -25 842 1 13 2 43 6 68 9 25 3 55 8 66 10 12 2 37 7 55
10 209 34 513 124 749 221 169 70 413 202 585 318 544 364 1002 906 1249 1477
16 36 36 83 46 105 54 123 147 418 176 560 16 77 54 301 60 350 4 33 9 76 11
95 8 69 10 517 2 595 -15 162 -21 220 -24 225 -2 3 -6 30 -10 60 -3 30 -10 71
-15 90 -5 19 -12 51 -15 70 -13 77 -66 272 -106 390 -350 1041 -1162 1855
-2204 2208 -169 57 -416 118 -555 137 -19 3 -46 7 -60 10 -13 2 -54 7 -90 11
-36 3 -76 8 -90 11 -27 5 -536 14 -542 9z m502 -640 c70 -9 199 -27 225 -32
93 -18 138 -27 185 -41 30 -8 62 -16 70 -18 66 -13 365 -121 426 -153 11 -6
57 -29 104 -52 175 -87 340 -193 510 -328 107 -86 301 -275 381 -372 30 -36
57 -67 60 -70 11 -9 115 -155 161 -225 139 -212 252 -451 331 -700 42 -129 80
-283 93 -373 3 -20 9 -60 14 -89 32 -181 34 -539 4 -773 -4 -32 -25 -158 -40
-235 -12 -66 -54 -214 -81 -290 -8 -22 -16 -47 -18 -55 -11 -56 -146 -349
-215 -470 -88 -152 -241 -367 -334 -469 -110 -120 -273 -277 -350 -336 -21
-17 -44 -35 -50 -40 -27 -26 -193 -139 -287 -196 -234 -141 -607 -293 -819
-333 -14 -2 -56 -11 -95 -19 -183 -40 -361 -55 -590 -51 -187 3 -245 6 -320
18 -16 3 -52 8 -80 12 -43 5 -186 33 -250 49 -11 3 -29 7 -40 9 -137 29 -410
136 -598 234 -464 241 -869 622 -1140 1074 -129 214 -258 521 -313 743 -14 59
-34 146 -38 170 -3 17 -8 41 -11 55 -3 14 -8 48 -11 75 -3 28 -7 55 -9 62 -26
80 -26 585 0 733 2 14 7 45 10 70 45 351 216 795 430 1120 56 85 150 216 165
230 3 3 27 32 54 65 128 156 373 377 561 507 397 274 906 459 1361 494 49 3
90 8 92 9 6 6 398 -3 452 -9z"/>
</g>
</svg>
